<svg width="24" height="24" viewBox="0 0 24 24" fill="none" xmlns="http://www.w3.org/2000/svg">
<g>
<path d="M12 20C16.4183 20 20 16.4183 20 12C20 7.58172 16.4183 4 12 4C7.58172 4 4 7.58172 4 12C4 16.4183 7.58172 20 12 20Z" stroke="currentColor" stroke-width="1.75" stroke-linecap="round" stroke-linejoin="round"/>
<path d="M12 15.2C13.7673 15.2 15.2 13.7673 15.2 12C15.2 10.2327 13.7673 8.8 12 8.8C10.2327 8.8 8.8 10.2327 8.8 12C8.8 13.7673 10.2327 15.2 12 15.2Z" stroke="currentColor" stroke-width="1.75" stroke-linecap="round" stroke-linejoin="round"/>
<path d="M12 2V5" stroke="currentColor" stroke-width="1.75" stroke-linecap="round" stroke-linejoin="round"/>
<path d="M12 19V22" stroke="currentColor" stroke-width="1.75" stroke-linecap="round" stroke-linejoin="round"/>
<path d="M2 12H5" stroke="currentColor" stroke-width="1.75" stroke-linecap="round" stroke-linejoin="round"/>
<path d="M19 12H22" stroke="currentColor" stroke-width="1.75" stroke-linecap="round" stroke-linejoin="round"/>
</g>
</svg>
